<svg xmlns="http://www.w3.org/2000/svg" aria-hidden="true" style="position:absolute;width:0;height:0;overflow:hidden">
  <defs>
    <symbol id="icon-antenna" viewBox="0 0 32 32">
      <path fill="#2e2f42" d="m30.77 22.095-8.445-8.505.94-4.615c.24.095.5.145.76.145h.005a2.16 2.16 0 0 0 2.185-2.135 2.153 2.153 0 0 0-2.135-2.18 2.16 2.16 0 0 0-2.06 2.88l-4.96.605L8.97.16C8.87.055 8.735 0 8.595 0S8.32.055 8.22.155l-1.51 1.5c-.21.21-.21.55 0 .755l.81.825A14.955 14.955 0 0 0 10.04 20.9c.045.04.095.075.145.095-.03.18-.05.365-.05.55v6.185h-6.4A2.672 2.672 0 0 0 1.07 30.4v1.065c0 .295.235.535.53.535h24.535c.295 0 .535-.24.535-.535V30.4A2.676 2.676 0 0 0 24 27.73h-6.4v-2.74a15.26 15.26 0 0 0 3.05.32 14.856 14.856 0 0 0 7.04-1.785l.82.825c.1.1.235.155.375.16.14 0 .275-.06.375-.155l1.51-1.505a.531.531 0 0 0 0-.755zM23.275 6.23a1.067 1.067 0 1 1 .755 1.825h-.005a1.067 1.067 0 0 1-.745-1.825h-.005zM22.02 9.735l-.595 2.945-1.175-1.18 1.77-1.765zm-.605-.9-1.92 1.905-1.485-1.49 3.405-.415zM24 28.8c.885 0 1.6.715 1.6 1.6v.53H2.135v-.53c0-.885.715-1.6 1.6-1.6H24zm-7.465-2.135v1.065H11.2v-1.065h5.335zM11.2 25.6v-4.055c0-1.295 1.2-2.345 2.67-2.345s2.665 1.05 2.665 2.345V25.6H11.2zm6.4-1.7v-2.355c0-1.885-1.675-3.415-3.73-3.415a3.816 3.816 0 0 0-3.285 1.785A13.866 13.866 0 0 1 8.31 4.03l18.6 18.71a13.824 13.824 0 0 1-9.31 1.16zm11.29-.68-.75-.76L7.835 2.035l.755-.75 7.935 7.98.01.01 13.11 13.19-.755.755z" style="fill:var(--color1, #2e2f42)"/>
      <path fill="#4d5ae5" d="M13.875 20.265h-.005c-.885 0-1.605.715-1.605 1.595 0 .885.715 1.605 1.6 1.605h.005a1.6 1.6 0 0 0 .005-3.2zm.37 1.975c-.1.1-.235.16-.375.16a.536.536 0 0 1 0-1.07.531.531 0 0 1 .37.91h.005z" style="fill:var(--color2, #4d5ae5)"/>
    </symbol>
    <symbol id="icon-astronaut" viewBox="0 0 32 32">
      <path fill="#4d5ae5" d="M31.97 4.52a.533.533 0 0 0-.43-.36l-1.91-.28-.855-1.73c-.18-.365-.775-.365-.955 0l-.855 1.73-1.91.28a.533.533 0 0 0-.295.91l1.38 1.345-.325 1.905c-.035.2.05.4.21.52.165.12.385.135.565.04l1.705-.895 1.71.895c.08.04.165.065.25.065a.53.53 0 0 0 .315-.105.527.527 0 0 0 .21-.52l-.325-1.905 1.38-1.345a.536.536 0 0 0 .135-.55zm-2.46 1.33a.532.532 0 0 0-.155.47l.19 1.115-1-.525a.528.528 0 0 0-.25-.06c-.085 0-.17.02-.245.06l-1 .525.19-1.115a.532.532 0 0 0-.155-.47l-.81-.79 1.12-.165a.527.527 0 0 0 .4-.29l.5-1.015.5 1.015c.08.155.23.265.405.29l1.12.165-.81.79zM25.065 20.52h1.065v1.065h-1.065V20.52zM25.065 22.655h1.065v1.065h-1.065v-1.065zM26.13 21.585h1.07v1.07h-1.07v-1.07zM24 21.585h1.065v1.07H24v-1.07zM21.33 26.385h1.07v1.07h-1.07v-1.07zM21.33 28.52h1.07v1.065h-1.07V28.52zM22.4 27.455h1.065v1.065H22.4v-1.065z" style="fill:var(--color2, #4d5ae5)"/>
      <path fill="#4d5ae5" d="M20.265 27.455h1.065v1.065h-1.065v-1.065zM14.93 24.255H16v1.065h-1.07v-1.065zM14.93 26.385H16v1.07h-1.07v-1.07zM16 25.32h1.065v1.065H16V25.32zM13.865 25.32h1.065v1.065h-1.065V25.32zM4.795 6.12h1.07v1.065h-1.07V6.12zM4.795 8.255h1.07V9.32h-1.07V8.255zM5.865 7.185H6.93v1.07H5.865v-1.07zM3.73 7.185h1.065v1.07H3.73v-1.07z" style="fill:var(--color2, #4d5ae5)"/>
      <path fill="#2e2f42" d="M24.71 14.155a1.78 1.78 0 0 0-2.525-.35l-1.255.96-1.895 1.415-1.36-.54c2.425-1.085 4.115-3.51 4.115-6.32 0-3.82-3.125-6.935-6.96-6.935-3.84 0-6.96 3.115-6.96 6.935a6.84 6.84 0 0 0 1.12 3.76l-2.765-.025H6.22c-.01 0-.015.005-.025.005a.567.567 0 0 0-.155.03c-.01.005-.025.01-.04.015-.005 0-.01 0-.015.005L2.75 14.705l-1.895.915c-.02.005-.04.02-.065.035a1.78 1.78 0 0 0 .46 3.18 1.788 1.788 0 0 0 1.38-.125l1.385-.74L6.28 16.8l1.355-.005-5.44 5.415-1.34 1.335a1.66 1.66 0 0 0 1.18 2.84c.425 0 .855-.16 1.18-.485l1.315-1.31 1.74-1.3.9.9-1.76 1.755h-.005l-1.335 1.33c-.32.315-.49.735-.49 1.18s.17.865.49 1.18a1.678 1.678 0 0 0 2.36 0l3.48-3.47 1.01-1-.005-.005c.01-.005.02-.005.025-.015l5.165-5.655 3.47.49a.609.609 0 0 0 .265-.03c.015-.01.03-.015.05-.025.015-.01.04-.015.055-.025l3.215-2.135c.01-.01.015-.02.03-.03.01-.01.025-.015.04-.025l1.27-1.19a1.78 1.78 0 0 0 .21-2.365zM2.13 17.77a.727.727 0 0 1-.985-.31.708.708 0 0 1 .21-.9l1.315-.63.315.92.135.39-.99.53zm3.495-1.83-1.55.8-.255-.745-.18-.54 2.025-1-.04 1.485zm15.1-6.62c0 .92-.22 1.785-.6 2.56l-4.18-1.9a1.863 1.863 0 0 0-.79-1.39l1.465-4.86c2.38.76 4.105 2.975 4.105 5.59zm-11.79 0c0-3.235 2.645-5.865 5.895-5.865.255 0 .5.02.745.05l-1.43 4.755c-.02 0-.04-.005-.06-.005-1.03 0-1.87.835-1.87 1.865s.84 1.865 1.87 1.865c.695 0 1.295-.38 1.62-.945l3.86 1.755a5.882 5.882 0 0 1-4.735 2.39c-3.25 0-5.895-2.63-5.895-5.865zm5.955.8c0 .44-.36.8-.805.8s-.805-.36-.805-.8c0-.44.36-.8.805-.8s.805.36.805.8zM2.46 25.145a.605.605 0 0 1-1.03-.425c0-.16.065-.305.18-.42l.96-.96.85.85-.96.955zm3.215 3.73a.611.611 0 0 1-.855.005.594.594 0 0 1 0-.845l.965-.96.4.4.45.445-.96.955zM9.16 25.41h-.005L7.39 27.17l-.85-.85 1.765-1.755c.04-.04.065-.09.09-.135.005-.015.02-.025.025-.04.015-.04.02-.085.025-.13.005-.025.015-.045.015-.07 0-.035-.015-.07-.02-.105s-.005-.065-.02-.1c-.02-.05-.055-.09-.09-.135-.01-.01-.015-.025-.025-.04l-1.61-1.6c-.015-.015-.04-.025-.055-.04-.03-.02-.06-.04-.09-.055s-.06-.025-.09-.035c-.035-.01-.07-.015-.105-.02-.035 0-.065.005-.095.005-.035.005-.07.01-.105.02s-.065.03-.095.045c-.02.015-.04.015-.06.03l-1.775 1.325-.9-.9 2.4-2.385 4.36 4.29-.925.92zm6.815-7.02c-.015 0-.03.005-.045.005-.04-.005-.075 0-.115.005a.24.24 0 0 0-.085.025.44.44 0 0 0-.1.045c-.03.02-.055.035-.08.06-.015.01-.03.015-.04.03l-4.7 5.145-4.33-4.255 2.835-2.82a.531.531 0 0 0-.38-.91l-2.22.015.03-1.61 3.105.025a6.948 6.948 0 0 0 4.98 2.105c.435 0 .865-.045 1.28-.125.04.03.08.065.13.085l2.41.96.15.76.18.885-3.005-.43zm4.045.18-.315-1.56 1.445-1.08.38.505.57.755-2.08 1.38zm3.75-2.83-.835.785L22 15.29l.835-.64c.155-.12.35-.17.54-.145.195.03.365.13.48.285.22.295.18.7-.085.95z" style="fill:var(--color1, #2e2f42)"/>
      <path fill="#2e2f42" d="m13.6 18.54-2.145-2.13a.525.525 0 0 0-.75 0L8.56 18.54a.541.541 0 0 0 0 .76l2.145 2.13c.105.105.24.155.375.155s.275-.05.375-.155L13.6 19.3a.541.541 0 0 0 0-.76zm-2.52 1.76-1.385-1.38 1.385-1.38 1.39 1.38-1.39 1.38zM17.16 5.07l-.255 1.035c.07.015 1.735.45 1.735 2.15h1.07c0-2.02-1.665-2.97-2.55-3.185zM18.64 9.32h1.07v1.065h-1.07V9.32z" style="fill:var(--color1, #2e2f42)"/>
    </symbol>
    <symbol id="icon-clock" viewBox="0 0 32 32">
      <path fill="#2e2f42" d="M31.295 15.3C31.29 6.845 24.44-.005 15.985 0 7.535 0 .685 6.855.685 15.305c0 6.66 4.305 12.55 10.65 14.575a.653.653 0 0 0 .81-.42l3.865-12.25a1.912 1.912 0 1 0-.84-3.635L10.065 8.47a.634.634 0 0 0-.9.015.634.634 0 0 0 0 .885l5.105 5.11c-.395.8-.17 1.765.535 2.31L11.12 28.46C3.845 25.78.115 17.705 2.8 10.43 5.48 3.15 13.55-.575 20.83 2.105S31.835 12.86 29.155 20.14a14.042 14.042 0 0 1-7.465 7.97l-.395-1.875a.643.643 0 0 0-.76-.49.673.673 0 0 0-.29.15L16.41 29.32a.635.635 0 0 0 .23 1.085l4.9 1.56a.634.634 0 0 0 .815-.74l-.39-1.835a15.265 15.265 0 0 0 9.33-14.09zm-15.305-.64a.637.637 0 1 1-.004 1.274.637.637 0 0 1 .004-1.274zm2.1 14.865 2.185-1.95.6 2.84-2.785-.89z" style="fill:var(--color1, #2e2f42)"/>
      <path fill="#4d5ae5" d="M15.35 3.185V4.46a.637.637 0 0 0 1.275 0V3.185a.637.637 0 1 0-1.275 0zM3.875 14.66a.638.638 0 1 0 0 1.275H5.15a.637.637 0 0 0 0-1.275H3.875zM28.105 15.935a.637.637 0 1 0 0-1.275H26.83a.637.637 0 0 0 0 1.275h1.275z" style="fill:var(--color2, #4d5ae5)"/>
    </symbol>
    <symbol id="icon-diagram" viewBox="0 0 32 32">
      <path fill="#4d5ae5" d="M14.925 14.96h1.065v4.8h-1.065v-4.8zM19.185 17.095h1.07v2.665h-1.07v-2.665zM10.66 18.695h1.065v1.065H10.66v-1.065zM7.46 18.16h1.065v1.6H7.46v-1.6z" style="fill:var(--color2, #4d5ae5)"/>
      <path fill="#2e2f42" d="M1.595 28.29h25.59a1.6 1.6 0 0 0 1.595-1.6v-2.135c0-.88-.715-1.595-1.595-1.595h-.535V9.665l3.03-2.87c.7.35 1.55.135 2.01-.495.46-.635.395-1.51-.15-2.07a1.61 1.61 0 0 0-2.61 1.805l-2.28 2.16v-1.23c0-.88-.715-1.6-1.6-1.6H3.73c-.885 0-1.6.72-1.6 1.6V22.96h-.535c-.88 0-1.595.715-1.595 1.595v2.135c0 .88.715 1.6 1.595 1.6zM30.38 4.835c.295 0 .535.24.535.53a.531.531 0 1 1-1.065 0c0-.29.235-.53.53-.53zM3.195 6.965c0-.295.24-.53.535-.53h21.32c.295 0 .535.235.535.53v2.24L24.52 10.22V8.03c0-.29-.24-.53-.535-.53H4.795a.535.535 0 0 0-.535.53v13.33c0 .295.24.53.535.53h19.19a.531.531 0 0 0 .535-.53v-9.675l1.065-1.01V22.96H3.195V6.965zm4.8 6.93c-.725 0-1.355.48-1.55 1.175A1.601 1.601 0 0 0 9.1 16.645l1.855.93a.535.535 0 0 0 .635-.125l3.94-4.43 3.87 2.9c.21.155.5.14.685-.04l3.365-3.185v8.13H5.33V8.565h18.12v2.66l-3.77 3.57-3.905-2.925a.532.532 0 0 0-.715.07l-3.995 4.495-1.495-.745a.861.861 0 0 0 .02-.195c0-.885-.715-1.6-1.595-1.6zm.53 1.6a.531.531 0 1 1-1.065 0 .531.531 0 1 1 1.065 0zm3.2 8.53h5.33v.53c0 .295-.24.535-.535.535h-4.26a.536.536 0 0 1-.535-.535v-.53zm-10.66.53c0-.29.235-.53.53-.53h9.065v.53c0 .885.715 1.6 1.6 1.6h4.26c.885 0 1.6-.715 1.6-1.6v-.53h9.065c.295 0 .53.24.53.53v2.135c0 .295-.235.53-.53.53H1.595a.527.527 0 0 1-.53-.53v-2.135z" style="fill:var(--color1, #2e2f42)"/>
    </symbol>
    <symbol id="icon-facebook" viewBox="0 0 32 32">
      <path d="M21.32 5.3h2.92V.22C23.74.14 22 0 19.98 0c-4.2 0-7.1 2.64-7.1 7.5V12H8.24v5.68h4.64V32h5.7V17.68h4.46l.72-5.68h-5.18V8.08c0-1.66.44-2.78 2.74-2.78z"/>
    </symbol>
    <symbol id="icon-instagram" viewBox="0 0 32 32">
      <path d="M31.96 9.4c-.08-1.7-.36-2.88-.74-3.88a7.963 7.963 0 0 0-1.86-2.84c-.8-.82-1.76-1.44-2.82-1.84-1.02-.4-2.18-.68-3.88-.74C20.94 0 20.4 0 16.04 0c-4.34 0-4.88 0-6.58.08S6.58.44 5.58.82a7.963 7.963 0 0 0-2.84 1.86C1.92 3.48 1.3 4.44.9 5.5.5 6.52.22 7.7.14 9.4s-.1 2.24-.1 6.6c0 4.34.02 4.88.1 6.58s.36 2.88.74 3.9a8.063 8.063 0 0 0 1.86 2.82c.8.82 1.76 1.46 2.82 1.86 1.02.38 2.18.66 3.88.74 1.72.08 2.26.08 6.6.08s4.9 0 6.6-.08c1.7-.08 2.86-.36 3.88-.74a8.172 8.172 0 0 0 4.68-4.68c.4-1.02.68-2.2.74-3.9.08-1.7.1-2.24.1-6.58 0-4.36 0-4.9-.08-6.6zm-2.88 13.06c-.08 1.56-.34 2.4-.56 2.98a5.35 5.35 0 0 1-3.04 3.04c-.56.2-1.4.48-2.96.54-1.68.08-2.2.1-6.46.1-4.28 0-4.78-.02-6.46-.1-1.58-.06-2.42-.34-2.98-.54-.7-.26-1.32-.68-1.84-1.2s-.94-1.14-1.18-1.84c-.22-.56-.5-1.42-.56-2.98-.08-1.68-.1-2.18-.1-6.46 0-4.26.02-4.78.1-6.46.06-1.56.34-2.4.56-2.96.24-.7.66-1.34 1.2-1.84.5-.54 1.14-.94 1.82-1.2.58-.22 1.42-.48 2.98-.54 1.68-.08 2.2-.1 6.46-.1 4.28 0 4.78.02 6.46.1 1.56.06 2.42.32 2.98.54.68.26 1.32.66 1.84 1.2.52.52.94 1.14 1.18 1.84.22.56.48 1.4.56 2.96.08 1.68.1 2.2.1 6.46 0 4.28-.02 4.78-.1 6.46z"/>
      <path d="M16.04 7.78c-4.52 0-8.22 3.68-8.22 8.22s3.7 8.22 8.22 8.22c4.54 0 8.22-3.68 8.22-8.22s-3.68-8.22-8.22-8.22zm0 13.54c-2.94 0-5.32-2.38-5.32-5.32 0-2.96 2.38-5.34 5.32-5.34 2.96 0 5.34 2.38 5.34 5.34 0 2.94-2.38 5.32-5.34 5.32zM26.52 7.44a1.92 1.92 0 1 1-3.841-.001 1.92 1.92 0 0 1 3.841.001z"/>
    </symbol>
    <symbol id="icon-linkedin" viewBox="0 0 32 32">
      <path d="M31.98 32v-.02H32V20.26c0-5.74-1.24-10.18-7.96-10.18-3.22 0-5.38 1.78-6.28 3.46h-.08v-2.92H11.3v21.36h6.64V21.42c0-2.8.52-5.48 3.98-5.48 3.4 0 3.44 3.18 3.44 5.64V32h6.62zM.52 10.62h6.64V32H.52V10.62zM3.84 0C1.72 0 0 1.72 0 3.84s1.72 3.88 3.84 3.88 3.84-1.76 3.84-3.88S5.96 0 3.84 0z"/>
    </symbol>
    <symbol id="icon-twitter" viewBox="0 0 32 32">
      <path d="M32 6.06c-1.2.52-2.46.88-3.78 1.04 1.36-.8 2.38-2.08 2.88-3.62-1.28.76-2.68 1.28-4.16 1.58A6.565 6.565 0 0 0 22.14 3c-3.62 0-6.56 2.94-6.56 6.56 0 .52.06 1.02.16 1.48-5.46-.26-10.28-2.88-13.52-6.86-.56.98-.9 2.12-.9 3.32 0 2.28 1.18 4.28 2.92 5.46-1.06-.02-2.1-.34-2.96-.82v.08c0 3.18 2.26 5.84 5.24 6.44-.52.14-1.1.22-1.72.22-.42 0-.84-.02-1.24-.12.86 2.6 3.26 4.52 6.14 4.58-2.24 1.74-5.08 2.8-8.14 2.8-.54 0-1.06-.02-1.56-.1C2.9 27.92 6.34 29 10.06 29c12.06 0 18.66-10 18.66-18.68 0-.28 0-.56-.02-.84C30 8.56 31.1 7.4 32 6.06z"/>
    </symbol>
  </defs>
</svg>